<svg width="32" height="32" viewBox="0 0 32 32" fill="none" xmlns="http://www.w3.org/2000/svg">
<rect width="32" height="32" fill="#E5E5E5"/>
<rect width="1120" height="1112" transform="translate(-840 -200)" fill="white"/>
<path d="M16 20C18.2091 20 20 18.2091 20 16C20 13.7909 18.2091 12 16 12C13.7909 12 12 13.7909 12 16C12 18.2091 13.7909 20 16 20Z" stroke="black" stroke-width="2" stroke-linecap="round" stroke-linejoin="round"/>
<path d="M9.63774 22.3625C8.81652 21.5422 8.16271 20.57 7.71274 19.5C7.24241 18.3931 7 17.2027 7 16C7 14.7973 7.24241 13.6069 7.71274 12.5C8.16271 11.43 8.81652 10.4578 9.63774 9.63751" stroke="black" stroke-width="2" stroke-linecap="round" stroke-linejoin="round"/>
<path d="M22.3623 9.63751C23.1835 10.4578 23.8373 11.43 24.2873 12.5C24.7576 13.6069 25 14.7973 25 16C25 17.2027 24.7576 18.3931 24.2873 19.5C23.8373 20.57 23.1835 21.5422 22.3623 22.3625" stroke="black" stroke-width="2" stroke-linecap="round" stroke-linejoin="round"/>
<path d="M6.1001 25.9C4.82466 24.6222 3.80625 23.1115 3.1001 21.45C2.37402 19.7247 2 17.8718 2 16C2 14.1282 2.37402 12.2752 3.1001 10.55C3.80625 8.8884 4.82466 7.37776 6.1001 6.09998" stroke="black" stroke-width="2" stroke-linecap="round" stroke-linejoin="round"/>
<path d="M25.8999 6.09998C27.1753 7.37776 28.1938 8.8884 28.8999 10.55C29.626 12.2752 30 14.1282 30 16C30 17.8718 29.626 19.7247 28.8999 21.45C28.1938 23.1115 27.1753 24.6222 25.8999 25.9" stroke="black" stroke-width="2" stroke-linecap="round" stroke-linejoin="round"/>
</svg>
