<svg width="32" height="32" viewBox="0 0 32 32" fill="none" xmlns="http://www.w3.org/2000/svg">
<rect width="32" height="32" fill="#E5E5E5"/>
<rect width="1120" height="1112" transform="translate(-708 -264)" fill="white"/>
<path d="M5.67485 22.125C4.18596 19.613 3.66516 16.6439 4.21023 13.7752C4.7553 10.9064 6.32876 8.33525 8.6352 6.54438C10.9416 4.75352 13.8225 3.86611 16.7368 4.04875C19.6512 4.2314 22.3987 5.47153 24.4635 7.53634C26.5283 9.60115 27.7684 12.3486 27.9511 15.263C28.1337 18.1774 27.2463 21.0582 25.4554 23.3646C23.6646 25.6711 21.0934 27.2445 18.2247 27.7896C15.3559 28.3347 12.3868 27.8139 9.87485 26.325V26.325L5.72485 27.5C5.55482 27.5497 5.37455 27.5528 5.20292 27.5089C5.0313 27.465 4.87464 27.3757 4.74938 27.2504C4.62411 27.1252 4.53485 26.9685 4.49095 26.7969C4.44705 26.6253 4.45012 26.445 4.49985 26.275L5.67485 22.125Z" stroke="black" stroke-width="2" stroke-linecap="round" stroke-linejoin="round"/>
<path d="M16 17.5C16.8284 17.5 17.5 16.8284 17.5 16C17.5 15.1716 16.8284 14.5 16 14.5C15.1716 14.5 14.5 15.1716 14.5 16C14.5 16.8284 15.1716 17.5 16 17.5Z" fill="black"/>
<path d="M10 17.5C10.8284 17.5 11.5 16.8284 11.5 16C11.5 15.1716 10.8284 14.5 10 14.5C9.17157 14.5 8.5 15.1716 8.5 16C8.5 16.8284 9.17157 17.5 10 17.5Z" fill="black"/>
<path d="M22 17.5C22.8284 17.5 23.5 16.8284 23.5 16C23.5 15.1716 22.8284 14.5 22 14.5C21.1716 14.5 20.5 15.1716 20.5 16C20.5 16.8284 21.1716 17.5 22 17.5Z" fill="black"/>
</svg>
