<svg width="32" height="32" viewBox="0 0 32 32" fill="none" xmlns="http://www.w3.org/2000/svg">
<rect width="32" height="32" fill="#E5E5E5"/>
<rect width="1120" height="1112" transform="translate(-1038 -392)" fill="white"/>
<path d="M26.2877 4.48752L2.98774 11.05C2.7894 11.1042 2.61259 11.2183 2.48141 11.3766C2.35023 11.535 2.27105 11.7299 2.25465 11.9349C2.23825 12.1398 2.28544 12.3449 2.38978 12.5221C2.49412 12.6992 2.65054 12.84 2.83774 12.925L13.5377 17.9875C13.7473 18.0846 13.9157 18.2529 14.0127 18.4625L19.0752 29.1625C19.1603 29.3497 19.301 29.5061 19.4782 29.6105C19.6554 29.7148 19.8604 29.762 20.0654 29.7456C20.2704 29.7292 20.4653 29.65 20.6236 29.5188C20.782 29.3877 20.896 29.2109 20.9502 29.0125L27.5127 5.71252C27.5625 5.54249 27.5655 5.36222 27.5216 5.19059C27.4777 5.01897 27.3885 4.86231 27.2632 4.73705C27.1379 4.61178 26.9813 4.52252 26.8097 4.47862C26.638 4.43472 26.4578 4.43779 26.2877 4.48752V4.48752Z" stroke="black" stroke-width="2" stroke-linecap="round" stroke-linejoin="round"/>
<path d="M13.8623 18.1375L19.5123 12.4875" stroke="black" stroke-width="2" stroke-linecap="round" stroke-linejoin="round"/>
</svg>
